<svg width="421.8" height="105.002" viewBox="0 0 421.8 105.002" xmlns="http://www.w3.org/2000/svg"><g id="svgGroup" stroke-linecap="round" fill-rule="evenodd" font-size="9pt" stroke="#36d9d9" stroke-width="0.25mm" fill="#000000" style="stroke:#36d9d9;stroke-width:0.25mm;fill:#000000"><path d="M 277.56 81.121 A 49.342 49.342 0 0 0 283.8 81.5 A 66.079 66.079 0 0 0 287.669 81.386 A 76.165 76.165 0 0 0 297.95 80.05 Q 305.3 78.6 312.25 75.95 A 75.82 75.82 0 0 0 315.695 74.54 A 64.82 64.82 0 0 0 324.85 69.65 Q 330.5 66 333.8 61.45 A 19.993 19.993 0 0 0 334.393 60.587 A 16.058 16.058 0 0 0 337.1 51.7 Q 337.1 46.9 334.45 43.8 A 18.211 18.211 0 0 0 331.614 41.136 A 22.569 22.569 0 0 0 327.55 38.7 A 58.43 58.43 0 0 0 325.66 37.852 A 66.135 66.135 0 0 0 318.4 35.25 Q 313.5 33.8 309.05 32.3 A 41.168 41.168 0 0 1 308.178 31.996 Q 304.301 30.591 301.6 28.7 A 16.812 16.812 0 0 1 300.7 28.011 A 18.555 18.555 0 0 1 297.8 25 Q 296.1 22.8 296.1 20.1 Q 296.1 17.3 297.8 15.1 Q 299.5 12.9 301.7 11.4 Q 308.7 12.8 315.55 14.7 Q 322.4 16.6 329.3 18.4 Q 331.1 18.8 332.95 19.3 Q 334.8 19.8 336.7 19.8 A 7.643 7.643 0 0 0 337.079 19.791 Q 337.806 19.755 338.408 19.578 A 3.644 3.644 0 0 0 340.15 18.5 A 5.447 5.447 0 0 0 340.356 18.254 A 4.2 4.2 0 0 0 341.3 15.6 Q 341.3 14.3 340.6 13.2 A 10.32 10.32 0 0 0 337.999 10.347 A 14.15 14.15 0 0 0 335.3 8.75 Q 331.7 7.1 327.2 6.35 Q 322.7 5.6 318.2 5.6 A 59.657 59.657 0 0 0 315.27 5.671 A 49.535 49.535 0 0 0 310.7 6.1 A 47.23 47.23 0 0 0 309 6.374 Q 307.814 6.588 306.794 6.843 A 22.086 22.086 0 0 0 304.9 7.4 Q 299.9 6 294.8 5.25 Q 289.7 4.5 284.5 4.5 Q 280.5 4.5 275.8 5.15 Q 271.1 5.8 266.8 7.55 A 21.239 21.239 0 0 0 265.242 8.258 A 17.58 17.58 0 0 0 259.75 12.5 A 11.023 11.023 0 0 0 257.387 17.282 A 16.015 16.015 0 0 0 257 20.9 A 16.387 16.387 0 0 0 257.017 21.643 A 13.656 13.656 0 0 0 258.9 28.1 Q 260.8 31.3 263.9 33.6 Q 267 35.9 270.7 37.1 A 26.583 26.583 0 0 0 271.739 37.414 A 23.162 23.162 0 0 0 278 38.3 Q 278.459 38.3 279.564 38.213 A 86.943 86.943 0 0 0 280.3 38.15 A 27.005 27.005 0 0 0 280.749 38.107 A 24.19 24.19 0 0 0 283.55 37.65 Q 284.57 37.42 284.919 37.081 A 0.525 0.525 0 0 0 285.1 36.7 A 0.442 0.442 0 0 0 285.087 36.589 Q 285.052 36.453 284.919 36.415 A 0.432 0.432 0 0 0 284.8 36.4 Q 284.5 36.4 284.15 36.45 A 4.731 4.731 0 0 1 283.88 36.481 A 5.693 5.693 0 0 1 283.4 36.5 Q 281.898 36.5 280.023 36.167 A 33.53 33.53 0 0 1 277.65 35.65 Q 274.3 34.8 271.1 33.45 A 41.993 41.993 0 0 1 269.637 32.802 Q 268.514 32.276 267.569 31.743 A 20.283 20.283 0 0 1 265.9 30.7 A 18.789 18.789 0 0 1 263.878 28.894 A 22.602 22.602 0 0 1 261.25 25.6 A 14.037 14.037 0 0 1 260.714 24.723 A 11.343 11.343 0 0 1 259.2 19.1 A 9.333 9.333 0 0 1 259.4 17.116 A 6.173 6.173 0 0 1 261.35 13.7 A 12.312 12.312 0 0 1 263.413 12.229 A 14.664 14.664 0 0 1 266.6 10.9 Q 270.1 9.9 273.85 9.55 Q 277.6 9.2 281.3 9.2 Q 285.6 9.2 289.8 9.6 Q 294 10 298.1 10.8 A 21.07 21.07 0 0 0 297.478 11.238 A 22.374 22.374 0 0 0 292.65 16.1 Q 290.3 19.3 290.3 23.2 A 12.453 12.453 0 0 0 290.391 24.725 A 9.551 9.551 0 0 0 292.2 29.35 A 14.618 14.618 0 0 0 293.495 30.861 A 16.23 16.23 0 0 0 297.1 33.6 Q 300.1 35.3 303.4 36.5 Q 306.7 37.7 309.4 38.7 A 143.49 143.49 0 0 1 311.249 39.375 Q 316.759 41.428 320.559 43.395 A 38.177 38.177 0 0 1 324.1 45.45 A 14.055 14.055 0 0 1 326.157 47.093 A 8.808 8.808 0 0 1 329 53.6 A 13.224 13.224 0 0 1 328.426 57.469 A 15.104 15.104 0 0 1 326.3 61.75 A 25.257 25.257 0 0 1 323.25 65.316 A 32.358 32.358 0 0 1 319.05 68.75 A 46.96 46.96 0 0 1 316.709 70.269 A 53.166 53.166 0 0 1 308.9 74.15 Q 303.3 76.4 297.3 77.65 A 63.67 63.67 0 0 1 293.965 78.255 A 53.86 53.86 0 0 1 285.8 78.9 A 43.325 43.325 0 0 1 285.386 78.899 Q 282.29 78.869 279.561 78.395 A 25.871 25.871 0 0 1 273.5 76.6 Q 268.3 74.3 267.3 69.2 A 12.419 12.419 0 0 1 267.232 68.833 A 10.396 10.396 0 0 1 267.15 68.25 A 8.664 8.664 0 0 1 267.12 67.92 A 7.195 7.195 0 0 1 267.1 67.4 Q 267.1 64.6 269.05 61.9 A 10.808 10.808 0 0 1 270.45 60.33 Q 271.431 59.415 272.742 58.579 A 24.444 24.444 0 0 1 275.45 57.1 A 26.517 26.517 0 0 1 278.882 55.787 Q 280.784 55.195 283.058 54.733 A 64.912 64.912 0 0 1 287.5 54 A 104.116 104.116 0 0 1 287.869 53.958 Q 289.479 53.774 291.85 53.55 Q 294.5 53.3 297.4 53.3 Q 302.1 53.3 306.6 54.15 A 17.481 17.481 0 0 1 308.896 54.736 Q 310.078 55.131 310.992 55.671 A 6.729 6.729 0 0 1 312.9 57.3 Q 313.003 57.507 313.159 57.607 A 0.619 0.619 0 0 0 313.5 57.7 A 1.179 1.179 0 0 0 313.796 57.666 Q 314.3 57.535 314.3 56.9 A 0.419 0.419 0 0 0 314.278 56.768 Q 314.234 56.634 314.1 56.5 A 4.841 4.841 0 0 0 313.095 55.314 Q 312.537 54.828 311.779 54.406 A 12.187 12.187 0 0 0 310.25 53.7 A 31.462 31.462 0 0 0 307.632 52.824 A 39.597 39.597 0 0 0 303.9 51.95 A 71.676 71.676 0 0 0 301.955 51.616 A 61.354 61.354 0 0 0 297.2 51.05 Q 294 50.8 292.2 50.8 A 79.827 79.827 0 0 0 286.487 50.995 Q 279.3 51.511 274.25 53.4 Q 267.3 56 264.05 59.95 A 19.943 19.943 0 0 0 263.971 60.047 Q 262.756 61.542 262.007 63.059 A 11.053 11.053 0 0 0 260.8 68 Q 260.8 68.6 260.85 69.15 Q 260.9 69.7 261 70.2 Q 261.8 74.1 265 76.6 A 16.01 16.01 0 0 0 265.17 76.731 Q 266.91 78.053 269.138 79.002 A 25.755 25.755 0 0 0 273.1 80.3 A 40.019 40.019 0 0 0 277.56 81.121 Z M 95.4 87.2 L 95.4 88 Q 96.3 93.1 99.25 96.15 A 16.867 16.867 0 0 0 106.1 100.42 A 19.809 19.809 0 0 0 106.5 100.55 Q 110.8 101.9 115.4 101.9 Q 118.3 101.9 121.1 101.4 Q 123.9 100.9 126.5 99.9 Q 130.8 98.3 134.9 95.3 Q 139 92.3 142.7 88.7 A 136.432 136.432 0 0 0 146.609 84.745 A 107.032 107.032 0 0 0 149.3 81.8 Q 161.6 67.7 170.15 51.6 Q 178.7 35.5 184.8 18 A 312.583 312.583 0 0 0 178.793 26.401 A 368.972 368.972 0 0 0 176 30.5 Q 171.5 37.2 166.6 44 Q 161.7 50.8 156.25 57 A 97.816 97.816 0 0 1 144.939 67.995 A 90.8 90.8 0 0 1 144.75 68.15 Q 138.7 73.1 131.8 76 A 36.198 36.198 0 0 1 128.448 77.257 A 42.801 42.801 0 0 1 126.8 77.75 A 20.198 20.198 0 0 1 122.56 78.47 A 18.266 18.266 0 0 1 121.5 78.5 Q 118.153 78.5 116.074 77.081 A 6.593 6.593 0 0 1 114.6 75.7 A 9.906 9.906 0 0 1 112.777 71.836 Q 112.435 70.411 112.403 68.747 A 18.009 18.009 0 0 1 112.4 68.4 A 24.231 24.231 0 0 1 113.098 62.7 A 27.188 27.188 0 0 1 113.25 62.1 A 44.897 44.897 0 0 1 114.792 57.345 A 39.712 39.712 0 0 1 115.3 56.1 Q 117.6 50.5 121.4 44.3 Q 125.2 38.1 129.7 32.35 Q 134.2 26.6 138.5 22.3 Q 140.1 20.6 142.25 18.7 Q 144.4 16.8 146.4 15.8 A 4.014 4.014 0 0 1 147.025 15.549 A 3.577 3.577 0 0 1 147.2 15.5 Q 147.6 15.4 148 15.4 A 2.227 2.227 0 0 1 148.139 15.405 Q 148.309 15.416 148.55 15.45 A 0.625 0.625 0 0 1 148.691 15.486 Q 148.878 15.56 148.898 15.754 A 0.467 0.467 0 0 1 148.9 15.8 Q 148.9 16 148.7 16.2 L 148.3 16.6 Q 145 19.4 141.65 23.5 A 105.798 105.798 0 0 0 135.979 31.135 A 116.209 116.209 0 0 0 135.2 32.3 Q 132.1 37 129.55 41.7 Q 127 46.4 125.3 50.4 A 72.946 72.946 0 0 0 124.406 52.557 Q 123.966 53.665 123.507 54.907 A 124.885 124.885 0 0 0 123.2 55.75 Q 122.1 58.8 121.35 61.9 A 28.537 28.537 0 0 0 120.793 64.831 A 20.96 20.96 0 0 0 120.6 67.6 Q 120.6 70.4 121.85 71.85 A 3.79 3.79 0 0 0 123.456 72.927 Q 124.087 73.157 124.87 73.246 A 9.2 9.2 0 0 0 125.9 73.3 A 12.875 12.875 0 0 0 129.478 72.773 A 16.695 16.695 0 0 0 131.7 71.95 Q 134.7 70.6 137.55 68.65 A 73.915 73.915 0 0 0 139.881 66.992 Q 140.927 66.216 141.821 65.484 A 40.822 40.822 0 0 0 142.4 65 Q 151.1 57.7 158.4 49.15 Q 165.7 40.6 172.5 31.55 Q 179.3 22.5 186.3 13.8 Q 186.76 12.052 187.559 10.854 A 6.895 6.895 0 0 1 187.7 10.65 A 4.751 4.751 0 0 1 188.894 9.508 Q 189.58 9.04 190.5 8.7 A 2.043 2.043 0 0 1 190.636 8.5 Q 190.793 8.297 190.95 8.232 A 0.387 0.387 0 0 1 191.1 8.2 L 191.4 8.3 A 7.36 7.36 0 0 1 193.431 7.824 A 6.781 6.781 0 0 1 194 7.8 Q 194.7 7.8 195.55 8.1 A 1.454 1.454 0 0 1 195.984 8.335 Q 196.325 8.611 196.387 9.084 A 1.687 1.687 0 0 1 196.4 9.3 Q 196.4 9.52 196.292 9.794 A 2.536 2.536 0 0 1 196.2 10 Q 190.9 23.6 184.8 37.05 Q 178.7 50.5 170.9 62.9 Q 163.1 75.3 152.6 85.8 Q 144.2 94.2 133.85 99.6 Q 123.5 105 111.3 105 Q 108.3 105 105.05 104.4 Q 101.8 103.8 99 102.35 Q 96.2 100.9 94.45 98.45 A 9.222 9.222 0 0 1 92.907 94.74 A 12.67 12.67 0 0 1 92.7 92.4 Q 92.7 89.8 93.7 86.95 A 12.495 12.495 0 0 1 94.835 84.531 A 9.553 9.553 0 0 1 96.6 82.4 A 0.692 0.692 0 0 1 96.864 82.107 Q 96.992 82.03 97.161 82.009 A 1.1 1.1 0 0 1 97.3 82 Q 97.5 82 97.5 82.2 Q 97.5 82.7 96.45 83.8 Q 95.4 84.9 95.4 87.2 Z M 53.9 44.2 L 54.8 44.3 A 24 24 0 0 0 55.385 44.308 A 24.176 24.176 0 0 0 62.9 43.1 A 416.52 416.52 0 0 1 70.13 40.825 A 459.326 459.326 0 0 1 71.2 40.5 Q 75.5 39.2 80.1 39.2 A 20.712 20.712 0 0 1 81.867 39.28 A 26.502 26.502 0 0 1 83.35 39.45 A 7.614 7.614 0 0 1 85.176 39.937 A 6.457 6.457 0 0 1 86.4 40.6 A 2.884 2.884 0 0 1 87.567 42.332 Q 87.7 42.86 87.7 43.5 Q 87.7 45.7 85.85 47.3 A 17.803 17.803 0 0 1 84.127 48.625 Q 83.187 49.255 82.26 49.674 A 10.979 10.979 0 0 1 82.2 49.7 Q 81.893 49.854 81.703 49.89 A 0.564 0.564 0 0 1 81.6 49.9 A 0.666 0.666 0 0 1 81.494 49.893 Q 81.309 49.863 81.3 49.715 A 0.253 0.253 0 0 1 81.3 49.7 A 0.618 0.618 0 0 1 81.491 49.26 Q 81.691 49.054 82.1 48.9 A 1.143 1.143 0 0 0 82.828 48.09 Q 82.89 47.868 82.899 47.592 A 2.889 2.889 0 0 0 82.9 47.5 A 1.828 1.828 0 0 0 82.765 46.779 Q 82.57 46.321 82.096 46.039 A 2.45 2.45 0 0 0 81.7 45.85 A 8.795 8.795 0 0 0 79.953 45.4 A 10.725 10.725 0 0 0 79.05 45.3 Q 77.855 45.218 77.101 45.204 A 15.727 15.727 0 0 0 76.8 45.2 Q 73.1 45.2 69.25 45.4 Q 65.4 45.6 61.6 45.6 Q 59.6 45.6 57.55 45.5 Q 55.5 45.4 53.4 45.2 Q 50.3 51.6 46.35 58.35 Q 42.4 65.1 37.3 70.8 Q 32.2 76.5 25.7 80.05 A 29.244 29.244 0 0 1 13.592 83.514 A 35.352 35.352 0 0 1 11.1 83.6 Q 8.7 83.6 6.1 83.2 A 9.989 9.989 0 0 1 3.781 82.567 A 7.921 7.921 0 0 1 1.75 81.35 A 4.52 4.52 0 0 1 0.335 79.197 Q 0.094 78.449 0.027 77.538 A 9.959 9.959 0 0 1 0 76.8 A 4.216 4.216 0 0 1 0.023 76.394 Q 0.09 75.724 0.344 74.515 A 45.106 45.106 0 0 1 0.4 74.25 Q 0.8 72.4 1.45 70.75 Q 1.874 69.674 2.362 69.3 A 0.874 0.874 0 0 1 2.9 69.1 Q 3.144 69.1 3.222 69.397 A 1.053 1.053 0 0 1 3.25 69.55 Q 3.296 69.965 3.3 70.167 A 1.849 1.849 0 0 1 3.3 70.2 Q 3.3 73 4.15 75.55 A 9.333 9.333 0 0 0 6.123 78.957 A 9.082 9.082 0 0 0 6.95 79.75 Q 8.852 81.36 11.945 81.399 A 12.235 12.235 0 0 0 12.1 81.4 Q 12.6 81.4 13.2 81.35 Q 13.8 81.3 14.3 81.2 Q 17.469 80.567 20.803 78.211 A 26.531 26.531 0 0 0 21.5 77.7 A 42.03 42.03 0 0 0 25.417 74.316 A 55.852 55.852 0 0 0 28.85 70.65 A 113.269 113.269 0 0 0 34.867 62.98 A 126.74 126.74 0 0 0 35.95 61.45 Q 39.4 56.5 42.45 51.45 Q 45.5 46.4 47.9 42 Q 49.55 38.975 50.822 36.565 A 258.465 258.465 0 0 0 51.9 34.5 Q 55 28.4 58.9 22.75 Q 62.8 17.1 67.7 12.4 Q 57.7 10.1 47.8 10.1 Q 41.5 10.1 36.2 11.6 Q 30.9 13.1 25.8 17.2 A 38.707 38.707 0 0 0 21.907 20.765 A 46.096 46.096 0 0 0 20.2 22.65 Q 17.5 25.8 15.8 29.4 Q 14.1 33 14.1 37 A 31.485 31.485 0 0 0 14.148 38.681 Q 14.209 39.829 14.35 41.15 Q 14.6 43.5 15.35 45.7 Q 16.1 47.9 17.55 49.3 A 4.824 4.824 0 0 0 19.839 50.52 Q 20.599 50.7 21.493 50.7 A 8.79 8.79 0 0 0 21.5 50.7 A 2.073 2.073 0 0 1 21.657 50.707 Q 21.732 50.713 21.818 50.724 A 4.728 4.728 0 0 1 22 50.75 Q 22.261 50.794 22.295 51.027 A 0.512 0.512 0 0 1 22.3 51.1 Q 22.3 51.4 21.75 51.5 A 9.698 9.698 0 0 1 21.491 51.544 Q 21.211 51.587 21.013 51.597 A 2.225 2.225 0 0 1 20.9 51.6 A 9.662 9.662 0 0 1 17.999 51.139 A 12.21 12.21 0 0 1 16.6 50.6 A 15.4 15.4 0 0 1 13.223 48.515 A 12.689 12.689 0 0 1 10.85 45.95 A 11.463 11.463 0 0 1 8.872 40.464 A 14.546 14.546 0 0 1 8.8 39 Q 8.8 33.3 11.15 28.8 Q 13.5 24.3 17.3 20.75 Q 21.1 17.2 25.8 14.5 Q 30.5 11.8 35.1 9.9 Q 39.5 8 44.4 7.3 Q 49.3 6.6 54.1 6.6 Q 58.7 6.6 63.2 7.1 Q 67.7 7.6 72.2 8.4 Q 76.9 4.7 82.3 2.35 Q 87.7 0 93.8 0 Q 95.6 0 97.8 0.4 A 9.438 9.438 0 0 1 99.947 1.048 A 7.723 7.723 0 0 1 101.55 2 Q 103.1 3.2 103.1 5.5 Q 103.1 5.9 102.8 7.15 A 16.519 16.519 0 0 1 102.214 9.081 A 14.73 14.73 0 0 1 102.05 9.5 A 4.677 4.677 0 0 1 101.865 9.902 Q 101.516 10.566 101.139 10.599 A 0.453 0.453 0 0 1 101.1 10.6 A 0.432 0.432 0 0 1 100.981 10.586 Q 100.848 10.547 100.813 10.412 A 0.442 0.442 0 0 1 100.8 10.3 Q 100.8 9.7 101.05 9.15 A 2.768 2.768 0 0 0 101.27 8.364 A 3.527 3.527 0 0 0 101.3 7.9 A 4.414 4.414 0 0 0 101.012 6.269 Q 100.588 5.193 99.539 4.483 A 5.17 5.17 0 0 0 99.25 4.3 A 12.57 12.57 0 0 0 95.75 2.923 A 15.02 15.02 0 0 0 94.6 2.7 A 41.938 41.938 0 0 0 92.771 2.458 Q 91.329 2.3 90.2 2.3 A 21.184 21.184 0 0 0 83.949 3.205 A 19.387 19.387 0 0 0 81.7 4.05 Q 77.8 5.8 74.4 8.8 Q 78.9 9.7 83.35 10.85 Q 87.8 12 92.1 13.3 A 147.889 147.889 0 0 0 93.705 13.772 Q 94.418 13.977 95.204 14.196 A 271.524 271.524 0 0 0 96.85 14.65 Q 99.6 15.4 102.35 15.9 A 36.809 36.809 0 0 0 104.307 16.205 Q 105.85 16.4 107.1 16.4 A 5.974 5.974 0 0 0 107.944 16.344 Q 108.395 16.28 108.772 16.141 A 3.177 3.177 0 0 0 109.1 16 Q 109.715 15.693 110.093 15.622 A 1.128 1.128 0 0 1 110.3 15.6 A 0.183 0.183 0 0 1 110.405 15.629 Q 110.477 15.678 110.494 15.807 A 0.693 0.693 0 0 1 110.5 15.9 A 1.042 1.042 0 0 1 110.459 16.201 A 0.82 0.82 0 0 1 110.25 16.55 L 109.8 17 Q 107.2 18.9 105.4 19.95 Q 103.675 20.957 100.39 20.999 A 22.632 22.632 0 0 1 100.1 21 Q 98.1 21 96 20.6 Q 93.9 20.2 91.9 19.6 Q 86.6 18 81.25 16.2 Q 75.9 14.4 70.4 13 Q 67.3 17 64.35 22.55 Q 61.4 28.1 58.8 33.8 Q 56.2 39.5 53.9 44.2 Z M 267.01 92.593 A 50.729 50.729 0 0 0 276.9 93.6 Q 278.461 93.6 280.306 93.4 A 48.656 48.656 0 0 0 283.15 93 Q 286.7 92.4 289.95 91.05 A 17.095 17.095 0 0 0 290.963 90.591 A 14.342 14.342 0 0 0 295.35 87.3 A 8.124 8.124 0 0 0 297.088 84.221 A 9.941 9.941 0 0 0 297.5 81.3 A 10.205 10.205 0 0 0 296.836 77.716 A 13.478 13.478 0 0 0 295.4 74.95 A 14.381 14.381 0 0 0 294.074 73.243 A 10.988 10.988 0 0 0 290.3 70.5 Q 289.9 70.3 289.25 70.1 A 5.81 5.81 0 0 0 289.025 70.036 Q 288.782 69.972 288.562 69.938 A 3.051 3.051 0 0 0 288.1 69.9 Q 287.947 69.9 287.618 70.018 A 6.137 6.137 0 0 0 287.4 70.1 Q 287.127 70.21 287.003 70.349 A 0.371 0.371 0 0 0 286.9 70.6 A 0.253 0.253 0 0 0 286.9 70.615 Q 286.909 70.763 287.094 70.793 A 0.666 0.666 0 0 0 287.2 70.8 A 9.108 9.108 0 0 1 290.341 72.647 A 11.213 11.213 0 0 1 292.4 75.15 A 15.065 15.065 0 0 1 293.411 77.085 A 11.58 11.58 0 0 1 294.4 81.7 Q 294.4 83.118 294.077 84.259 A 5.864 5.864 0 0 1 292.65 86.8 A 8.966 8.966 0 0 1 290.801 88.257 A 10.594 10.594 0 0 1 288.2 89.35 Q 285.5 90.1 282.8 90.1 A 40.859 40.859 0 0 1 275.921 89.489 A 55.165 55.165 0 0 1 268.95 87.8 A 114.036 114.036 0 0 1 266.149 86.896 A 127.553 127.553 0 0 1 253.85 82 Q 246.2 78.5 239.15 74.7 A 1553.274 1553.274 0 0 1 237.2 73.648 Q 234.323 72.092 231.741 70.679 A 902.727 902.727 0 0 1 226.7 67.9 Q 231.6 61.7 235.5 54.8 Q 239.4 47.9 243.2 41 Q 245.7 36.4 248.45 30.85 Q 251.2 25.3 254.55 20.05 A 48.884 48.884 0 0 1 255.08 19.238 A 43.592 43.592 0 0 1 262.25 10.9 Q 266.6 7 272.3 5.7 Q 273.8 5.4 275.3 5.4 A 17.204 17.204 0 0 1 276.877 5.474 A 19.765 19.765 0 0 1 280.45 6.15 Q 283.1 6.9 285.35 8.45 Q 287.6 10 288.7 12.4 Q 289.1 13.2 289.25 13.95 Q 289.4 14.7 289.5 15.5 Q 289.634 16.038 289.994 16.214 A 0.911 0.911 0 0 0 290.4 16.3 A 1.262 1.262 0 0 0 290.48 16.298 Q 291.127 16.257 291.264 15.535 A 2.352 2.352 0 0 0 291.3 15.1 Q 291.3 14 291 12.7 A 12.023 12.023 0 0 0 290.699 11.62 A 9.197 9.197 0 0 0 290.2 10.4 Q 288 5.5 283.2 3.25 Q 278.4 1 273.3 1 L 272.1 1 Q 271.5 1 271 1.1 A 27.844 27.844 0 0 0 270.403 1.172 A 23.654 23.654 0 0 0 259.65 5.3 A 37.94 37.94 0 0 0 259.573 5.355 A 39.822 39.822 0 0 0 250.85 13.9 Q 247 19 243.85 24.65 Q 240.7 30.3 238 35.3 Q 234 42.7 230.25 50.4 Q 226.5 58.1 221.9 65.2 Q 217.6 62.9 213.4 60.45 Q 209.2 58 204.9 55.7 A 61.121 61.121 0 0 0 202.379 54.395 A 75.199 75.199 0 0 0 198.05 52.45 A 22.263 22.263 0 0 0 195.952 51.701 A 18.189 18.189 0 0 0 190.7 50.9 Q 187.2 50.9 184.6 52.65 Q 182 54.4 180.6 57.25 A 13.335 13.335 0 0 0 179.923 58.897 A 14.403 14.403 0 0 0 179.2 63.5 A 17.248 17.248 0 0 0 179.524 66.782 A 21.857 21.857 0 0 0 180.65 70.6 A 21.795 21.795 0 0 0 181.704 72.899 A 17.42 17.42 0 0 0 184.5 76.8 Q 184.7 77 185.05 77.3 A 1.451 1.451 0 0 0 185.222 77.428 A 1.069 1.069 0 0 0 185.8 77.6 Q 186.189 77.6 186.275 77.298 A 0.72 0.72 0 0 0 186.3 77.1 A 1.225 1.225 0 0 0 186.271 76.838 A 1.445 1.445 0 0 0 186.15 76.5 A 2.232 2.232 0 0 0 186.02 76.273 A 1.715 1.715 0 0 0 185.8 76 A 11.628 11.628 0 0 1 185.264 75.112 Q 184.64 73.965 184.184 72.556 A 21.811 21.811 0 0 1 183.5 69.8 A 53.402 53.402 0 0 1 183.223 68.158 Q 183.021 66.83 182.916 65.641 A 27.71 27.71 0 0 1 182.8 63.2 Q 182.8 61.538 183.082 60.246 A 7.865 7.865 0 0 1 183.6 58.65 A 2.364 2.364 0 0 1 183.989 58.055 Q 184.732 57.222 186.333 56.99 A 9.564 9.564 0 0 1 187.7 56.9 Q 189.603 56.9 192.002 57.568 A 29.772 29.772 0 0 1 194.65 58.45 Q 198.7 60 203.05 62.35 Q 207.4 64.7 211.35 67.05 A 454.1 454.1 0 0 0 211.54 67.164 Q 215.365 69.437 218 70.9 Q 216.813 72.385 215.184 73.993 A 56.245 56.245 0 0 1 212.75 76.25 Q 209.5 79.1 205.85 81.15 A 21.104 21.104 0 0 1 205.423 81.384 Q 203.935 82.175 202.505 82.622 A 12.058 12.058 0 0 1 198.9 83.2 A 9.949 9.949 0 0 1 196.881 82.988 A 12.517 12.517 0 0 1 194.55 82.25 Q 193.003 81.597 192.52 80.212 A 4.265 4.265 0 0 1 192.3 78.8 Q 192.3 77.5 192.4 76.65 A 4.088 4.088 0 0 1 192.524 76.04 Q 192.702 75.397 193.1 74.6 A 4.255 4.255 0 0 1 193.102 74.597 Q 193.201 74.399 193.3 74.25 A 0.576 0.576 0 0 0 193.373 74.096 A 0.676 0.676 0 0 0 193.4 73.9 Q 193.4 73.498 192.947 73.42 A 1.452 1.452 0 0 0 192.7 73.4 Q 191 73.4 190.1 75.15 Q 189.2 76.9 189.2 78.3 A 7.056 7.056 0 0 0 189.271 79.316 A 5.089 5.089 0 0 0 190.65 82.2 A 7.668 7.668 0 0 0 191.979 83.297 A 8.769 8.769 0 0 0 194.3 84.35 A 16.977 16.977 0 0 0 195.922 84.747 A 13.72 13.72 0 0 0 198.5 85 A 29.327 29.327 0 0 0 198.555 85 A 24.745 24.745 0 0 0 211.4 81.55 Q 217.2 78.1 222 73.2 Q 227.7 76.3 234.5 79.85 Q 241.3 83.4 248.55 86.55 A 114.923 114.923 0 0 0 249.456 86.94 A 104.835 104.835 0 0 0 263 91.65 A 60.153 60.153 0 0 0 267.01 92.593 Z M 386.9 80.3 Q 386.2 80.3 386.2 79.4 Q 386.2 79.069 386.474 78.738 A 1.99 1.99 0 0 1 386.6 78.6 Q 387.09 78.029 388.214 76.256 A 100.732 100.732 0 0 0 388.75 75.4 A 3090.423 3090.423 0 0 0 389.99 73.399 Q 390.539 72.512 391.141 71.538 A 5619.678 5619.678 0 0 0 392.4 69.5 Q 394.5 66.1 396.65 62.35 Q 398.8 58.6 400.7 55.25 Q 402.505 52.067 403.634 49.877 A 79.41 79.41 0 0 0 403.75 49.65 Q 404.9 47.4 404.9 47 Q 404.9 46.3 404.1 46.3 A 4.074 4.074 0 0 0 403.237 46.403 Q 402.277 46.612 401 47.25 Q 399.545 47.978 398.56 48.5 A 52.297 52.297 0 0 0 398 48.8 Q 394.9 50.6 391.5 53.35 A 79.143 79.143 0 0 0 385.73 58.52 A 88.409 88.409 0 0 0 384.8 59.45 A 94.366 94.366 0 0 0 379.623 65.139 A 84.694 84.694 0 0 0 378.75 66.2 Q 376.022 69.573 374.327 72.651 A 32.411 32.411 0 0 0 374.3 72.7 Q 373.9 73.5 373.5 74.25 A 2.238 2.238 0 0 1 372.813 75.018 Q 372.506 75.238 372.1 75.4 Q 371.3 75.8 370.4 75.95 Q 369.5 76.1 368.7 76.5 Q 368 76.8 367.25 77.05 Q 366.5 77.3 365.7 77.3 Q 365.333 77.3 365.303 77.216 A 0.046 0.046 0 0 1 365.3 77.2 A 0.3 0.3 0 0 1 365.302 77.167 Q 365.305 77.134 365.318 77.117 A 0.038 0.038 0 0 1 365.35 77.1 Q 365.4 77.1 365.4 77 L 367.05 75.35 Q 367.9 74.5 368.6 73.6 Q 370.5 71.3 372.1 68.8 Q 373.7 66.3 375 63.7 A 30.976 30.976 0 0 0 375.381 63.025 Q 375.807 62.252 376.365 61.16 A 135.047 135.047 0 0 0 376.9 60.1 Q 378.1 57.7 379.1 55.3 Q 379.869 53.454 380.047 52.318 A 4.034 4.034 0 0 0 380.1 51.7 A 2.812 2.812 0 0 0 380.086 51.407 Q 380.006 50.651 379.469 50.843 A 0.913 0.913 0 0 0 379.45 50.85 Q 378.847 51.082 378.803 50.583 A 0.948 0.948 0 0 1 378.8 50.5 A 1.236 1.236 0 0 1 378.854 50.159 Q 378.946 49.841 379.195 49.438 A 5.816 5.816 0 0 1 379.35 49.2 Q 379.771 48.588 380.046 48.21 A 17.063 17.063 0 0 1 380.2 48 Q 381.5 46.2 383.15 44.65 Q 384.8 43.1 386.9 42.3 Q 387.7 42 389.1 41.55 A 14.31 14.31 0 0 1 389.84 41.333 Q 390.725 41.1 391.3 41.1 A 1.331 1.331 0 0 1 391.511 41.116 Q 391.882 41.176 391.899 41.471 A 0.505 0.505 0 0 1 391.9 41.5 Q 391.9 42.1 391.3 42.7 Q 387.9 47.6 385 52.65 Q 382.1 57.7 379.4 63 Q 381.238 60.704 383.778 57.908 A 170.244 170.244 0 0 1 385.4 56.15 A 111.619 111.619 0 0 1 392.677 49.064 A 122.345 122.345 0 0 1 393.2 48.6 A 51.652 51.652 0 0 1 398.509 44.483 A 43.256 43.256 0 0 1 401.75 42.5 A 21.338 21.338 0 0 1 405.358 40.903 Q 407.674 40.138 409.883 40.102 A 13.383 13.383 0 0 1 410.1 40.1 A 5.717 5.717 0 0 1 410.381 40.109 Q 410.916 40.136 411.95 40.25 A 12.11 12.11 0 0 1 413.636 40.555 A 10.305 10.305 0 0 1 414.45 40.8 A 4.018 4.018 0 0 1 414.87 40.971 Q 415.299 41.178 415.476 41.428 A 0.634 0.634 0 0 1 415.6 41.8 Q 415.6 42.3 414.9 42.8 Q 414.326 43.211 413.953 43.419 A 3.762 3.762 0 0 1 413.8 43.5 Q 412.26 44.454 410.72 46.322 A 23.578 23.578 0 0 0 409.6 47.8 Q 407.5 50.8 405.75 54.1 A 219.23 219.23 0 0 0 404.529 56.435 Q 404.058 57.349 403.651 58.165 A 103.403 103.403 0 0 0 402.9 59.7 Q 402.5 60.7 401.75 62.35 A 11.65 11.65 0 0 0 401.357 63.322 Q 401.012 64.308 401 65.05 A 3.281 3.281 0 0 0 401 65.1 A 1.474 1.474 0 0 0 401.036 65.44 Q 401.169 66 401.8 66 A 2.185 2.185 0 0 0 402.396 65.911 Q 402.658 65.837 402.943 65.7 A 5.133 5.133 0 0 0 403.4 65.45 Q 404.089 65.029 404.544 64.755 A 103.904 103.904 0 0 1 404.8 64.6 Q 408.3 62.2 412 60 Q 415.7 57.8 419.7 56.3 A 0.586 0.586 0 0 0 419.807 56.289 Q 420.031 56.246 420.5 56.05 A 17.05 17.05 0 0 1 420.707 55.966 Q 421.062 55.823 421.171 55.804 A 0.168 0.168 0 0 1 421.2 55.8 Q 421.8 55.8 421.8 56.5 Q 418.9 57.8 416.1 59.6 Q 413.3 61.4 410.6 63.1 Q 404.6 66.9 398.6 71.1 Q 392.6 75.3 387.3 80.1 Q 387.166 80.234 387.033 80.279 A 0.419 0.419 0 0 1 386.9 80.3 Z M 83.499 46.439 A 9.662 9.662 0 0 0 86.4 46.9 A 1.116 1.116 0 0 0 86.46 46.899 Q 86.616 46.89 86.911 46.842 A 13.763 13.763 0 0 0 87.15 46.8 Q 87.7 46.7 87.7 46.4 Q 87.7 46.192 87.579 46.104 A 0.325 0.325 0 0 0 87.45 46.05 Q 87.317 46.024 87.198 46.011 A 1.906 1.906 0 0 0 87 46 A 7.387 7.387 0 0 1 85.45 45.846 A 5.069 5.069 0 0 1 83 44.6 A 7.883 7.883 0 0 1 81.759 43.112 A 9.528 9.528 0 0 1 80.75 41 Q 80 38.8 79.75 36.45 Q 79.609 35.129 79.548 33.981 A 31.485 31.485 0 0 1 79.5 32.3 A 26.678 26.678 0 0 1 79.803 28.21 A 20.219 20.219 0 0 1 82.85 20.1 Q 86.2 15 91.65 11.8 Q 97.1 8.6 103.5 7.05 Q 109.9 5.5 115.9 5.5 Q 123.2 5.5 130.1 7 Q 137 8.5 143.8 10.65 Q 150.6 12.8 157.4 14.9 Q 159.4 15.5 161.45 15.9 Q 163.5 16.3 165.6 16.3 A 22.632 22.632 0 0 0 165.89 16.299 Q 169.175 16.257 170.9 15.25 Q 172.7 14.2 175.2 12.3 Q 175.5 12.1 175.75 11.85 A 0.82 0.82 0 0 0 175.959 11.501 A 1.042 1.042 0 0 0 176 11.2 A 0.442 0.442 0 0 0 175.987 11.089 Q 175.952 10.953 175.819 10.915 A 0.432 0.432 0 0 0 175.7 10.9 A 0.554 0.554 0 0 0 175.64 10.904 Q 175.33 10.938 174.65 11.3 A 2.238 2.238 0 0 1 174.605 11.324 Q 174.093 11.582 173.293 11.663 A 7.884 7.884 0 0 1 172.5 11.7 A 21.012 21.012 0 0 1 171.527 11.678 Q 168.593 11.541 165 10.6 Q 162.638 9.982 160.591 9.426 A 342.828 342.828 0 0 1 157.6 8.6 Q 149.3 6.1 140.55 4.1 Q 131.8 2.1 123.1 2.1 A 65.576 65.576 0 0 0 117.94 2.311 A 83.455 83.455 0 0 0 110.8 3.2 Q 104.2 4.3 97.75 6.65 Q 91.3 9 86 12.8 Q 80.7 16.6 77.5 21.9 A 21.427 21.427 0 0 0 75.075 27.747 A 26.601 26.601 0 0 0 74.3 34.3 A 14.546 14.546 0 0 0 74.372 35.764 A 11.463 11.463 0 0 0 76.35 41.25 A 12.689 12.689 0 0 0 78.723 43.815 A 15.4 15.4 0 0 0 82.1 45.9 A 12.21 12.21 0 0 0 83.499 46.439 Z M 355.7 58.5 L 353.2 59.4 A 1.789 1.789 0 0 1 352.127 59.039 A 2.619 2.619 0 0 1 351.75 58.7 Q 351.1 58 350.6 57.4 A 72.424 72.424 0 0 0 349.808 58.617 Q 349.46 59.162 349.083 59.77 A 138.398 138.398 0 0 0 348.3 61.05 Q 347 63.2 346 65.4 Q 345.195 67.171 345.038 68.682 A 6.944 6.944 0 0 0 345 69.4 A 4.623 4.623 0 0 0 345.097 70.381 Q 345.226 70.976 345.527 71.414 A 2.409 2.409 0 0 0 346.1 72 A 4.124 4.124 0 0 0 347.849 72.722 A 5.571 5.571 0 0 0 348.8 72.8 A 12.663 12.663 0 0 0 351.662 72.451 Q 353.477 72.03 355.5 71.1 Q 359.2 69.4 362.7 67.05 Q 365.106 65.435 366.945 64.079 A 67.906 67.906 0 0 0 368.5 62.9 A 1.997 1.997 0 0 1 368.635 62.776 Q 368.774 62.661 368.888 62.621 A 0.341 0.341 0 0 1 369 62.6 Q 369.375 62.6 369.398 63.215 A 2.227 2.227 0 0 1 369.4 63.3 A 1.733 1.733 0 0 1 369.297 63.866 Q 369.137 64.33 368.727 64.866 A 5.96 5.96 0 0 1 368.7 64.9 Q 366.6 67.1 363.1 69.45 Q 359.6 71.8 355.8 73.5 A 34.559 34.559 0 0 1 352.59 74.758 Q 350.973 75.295 349.482 75.582 A 19.944 19.944 0 0 1 348.8 75.7 Q 346.5 76 344.2 76.4 Q 341.9 76.8 339.5 76.8 A 9.027 9.027 0 0 1 338.749 76.766 Q 337.853 76.691 336.65 76.45 A 3.03 3.03 0 0 1 335.905 76.208 Q 335.057 75.79 334.925 74.862 A 2.558 2.558 0 0 1 334.9 74.5 Q 334.9 73.6 335.4 72.8 A 79.979 79.979 0 0 1 339.774 64.48 A 95.433 95.433 0 0 1 342.2 60.65 Q 346.3 54.5 351.3 49.15 A 66.995 66.995 0 0 1 358.035 42.839 A 56.759 56.759 0 0 1 361.7 40.1 A 9.724 9.724 0 0 1 364.079 38.999 A 12.627 12.627 0 0 1 365.75 38.6 Q 367.944 38.227 369.746 38.202 A 18.48 18.48 0 0 1 370 38.2 L 371.35 38.2 Q 372 38.2 372.6 38.4 A 3.066 3.066 0 0 1 373.7 36.869 Q 374.148 36.524 374.757 36.26 A 7.142 7.142 0 0 1 375.3 36.05 Q 377.5 35.3 378.9 35.3 A 3.014 3.014 0 0 1 379.438 35.344 Q 380.365 35.513 380.399 36.337 A 1.545 1.545 0 0 1 380.4 36.4 A 2.825 2.825 0 0 1 380.294 37.149 Q 380.207 37.466 380.048 37.801 A 4.969 4.969 0 0 1 380 37.9 Q 379.6 38.7 379.4 39.3 Q 378.72 40.796 377.417 42.591 A 36.227 36.227 0 0 1 376.05 44.35 Q 373.7 47.2 370.9 49.7 A 32.544 32.544 0 0 1 369.209 51.116 Q 368.311 51.815 367.483 52.336 A 13.379 13.379 0 0 1 365.9 53.2 A 33.549 33.549 0 0 1 366.307 53.203 Q 366.874 53.21 367.829 53.234 A 305.232 305.232 0 0 1 368.45 53.25 Q 370.3 53.3 372.1 53.65 Q 373.9 54 374.2 54.8 Q 374.107 54.987 373.841 55 A 0.839 0.839 0 0 1 373.8 55 Q 370.6 55.4 367.55 55.7 A 42.468 42.468 0 0 0 362.296 56.563 A 47.593 47.593 0 0 0 361.3 56.8 L 358.5 57.6 Q 357.1 58 355.7 58.5 Z M 35.899 56.885 A 0.299 0.299 0 0 0 36 56.9 Q 36.4 56.9 37.05 55.95 A 17.168 17.168 0 0 0 37.142 55.814 Q 37.707 54.971 37.8 54.6 A 142.638 142.638 0 0 0 39.038 51.957 A 164.086 164.086 0 0 0 42.6 43.5 A 36.585 36.585 0 0 0 43.382 41.291 A 31.204 31.204 0 0 0 44.9 31.8 A 17.774 17.774 0 0 0 44.845 30.433 A 23.147 23.147 0 0 0 44.65 28.75 Q 44.4 27.1 43.55 25.9 A 2.717 2.717 0 0 0 41.932 24.818 A 4.262 4.262 0 0 0 40.9 24.7 Q 38.7 24.7 37 26.4 A 15.032 15.032 0 0 0 35.971 27.538 A 12.123 12.123 0 0 0 34.4 30 A 3.598 3.598 0 0 0 34.318 30.176 Q 34.2 30.447 34.2 30.6 A 0.442 0.442 0 0 0 34.213 30.712 Q 34.248 30.847 34.381 30.886 A 0.432 0.432 0 0 0 34.5 30.9 Q 35 30.9 35.3 30.15 Q 35.6 29.4 36.6 29.4 A 2.28 2.28 0 0 1 36.731 29.404 Q 37.49 29.448 37.927 30.007 A 2.225 2.225 0 0 1 38.25 30.6 A 8.462 8.462 0 0 1 38.478 31.301 A 9.615 9.615 0 0 1 38.8 33.2 A 59.121 59.121 0 0 1 38.841 33.824 Q 38.881 34.473 38.894 34.963 A 16.722 16.722 0 0 1 38.9 35.4 Q 38.9 40 38.1 44.85 A 107.086 107.086 0 0 1 38.087 44.926 A 98.416 98.416 0 0 1 36.1 54.2 A 13.99 13.99 0 0 1 36.033 54.518 A 16.554 16.554 0 0 1 35.85 55.25 Q 35.7 55.8 35.7 56.4 A 0.541 0.541 0 0 0 35.702 56.447 Q 35.711 56.543 35.75 56.7 Q 35.786 56.844 35.899 56.885 Z M 226.95 49.4 A 0.71 0.71 0 0 0 226.967 49.457 Q 227.015 49.6 227.1 49.6 A 0.656 0.656 0 0 0 227.418 49.51 Q 227.669 49.372 227.942 49.021 A 4.607 4.607 0 0 0 228.2 48.65 Q 228.651 47.937 228.876 47.534 A 5.95 5.95 0 0 0 229 47.3 A 142.638 142.638 0 0 0 230.238 44.657 A 164.086 164.086 0 0 0 233.8 36.2 A 36.585 36.585 0 0 0 234.582 33.991 A 31.204 31.204 0 0 0 236.1 24.5 A 17.774 17.774 0 0 0 236.045 23.133 A 23.147 23.147 0 0 0 235.85 21.45 Q 235.6 19.8 234.75 18.6 Q 234.152 17.757 233.036 17.506 A 4.734 4.734 0 0 0 232 17.4 A 5.028 5.028 0 0 0 229.729 17.924 A 5.816 5.816 0 0 0 228.15 19.1 A 15.466 15.466 0 0 0 227.236 20.127 A 12.746 12.746 0 0 0 225.6 22.7 A 3.598 3.598 0 0 0 225.518 22.876 Q 225.4 23.147 225.4 23.3 A 0.693 0.693 0 0 0 225.406 23.394 Q 225.423 23.523 225.495 23.572 A 0.183 0.183 0 0 0 225.6 23.6 Q 226.1 23.6 226.4 22.85 A 1.066 1.066 0 0 1 226.826 22.331 Q 227.19 22.1 227.8 22.1 A 2.193 2.193 0 0 1 228.043 22.114 Q 228.952 22.215 229.35 23.1 A 6.006 6.006 0 0 1 229.73 24.266 A 8.294 8.294 0 0 1 229.9 25.45 A 46.641 46.641 0 0 1 229.954 26.269 Q 230 27.089 230 27.7 Q 230 32.4 229.25 37.35 Q 228.5 42.3 227.3 46.9 A 13.99 13.99 0 0 1 227.233 47.218 A 16.554 16.554 0 0 1 227.05 47.95 Q 226.9 48.5 226.9 49.1 A 0.541 0.541 0 0 0 226.902 49.147 Q 226.911 49.243 226.95 49.4 Z M 110.65 56.7 A 0.71 0.71 0 0 0 110.667 56.757 Q 110.715 56.9 110.8 56.9 A 0.656 0.656 0 0 0 111.118 56.81 Q 111.369 56.672 111.642 56.321 A 4.607 4.607 0 0 0 111.9 55.95 Q 112.351 55.237 112.576 54.834 A 5.95 5.95 0 0 0 112.7 54.6 A 142.638 142.638 0 0 0 113.938 51.957 A 164.086 164.086 0 0 0 117.5 43.5 A 36.585 36.585 0 0 0 118.282 41.291 A 31.204 31.204 0 0 0 119.8 31.8 A 17.774 17.774 0 0 0 119.745 30.433 A 23.147 23.147 0 0 0 119.55 28.75 Q 119.3 27.1 118.45 25.9 Q 117.852 25.057 116.736 24.806 A 4.734 4.734 0 0 0 115.7 24.7 A 5.028 5.028 0 0 0 113.429 25.224 A 5.816 5.816 0 0 0 111.85 26.4 A 15.466 15.466 0 0 0 110.936 27.427 A 12.746 12.746 0 0 0 109.3 30 A 3.598 3.598 0 0 0 109.218 30.176 Q 109.1 30.447 109.1 30.6 A 0.693 0.693 0 0 0 109.106 30.694 Q 109.123 30.823 109.195 30.872 A 0.183 0.183 0 0 0 109.3 30.9 Q 109.8 30.9 110.1 30.15 A 1.066 1.066 0 0 1 110.526 29.631 Q 110.89 29.4 111.5 29.4 A 2.193 2.193 0 0 1 111.743 29.414 Q 112.652 29.515 113.05 30.4 A 6.006 6.006 0 0 1 113.43 31.566 A 8.294 8.294 0 0 1 113.6 32.75 A 46.641 46.641 0 0 1 113.654 33.569 Q 113.7 34.389 113.7 35 Q 113.7 39.7 112.95 44.65 Q 112.2 49.6 111 54.2 A 13.99 13.99 0 0 1 110.933 54.518 A 16.554 16.554 0 0 1 110.75 55.25 Q 110.6 55.8 110.6 56.4 A 0.541 0.541 0 0 0 110.602 56.447 Q 110.611 56.543 110.65 56.7 Z M 335.3 15.8 A 8.507 8.507 0 0 0 336.15 15.762 Q 337.9 15.585 337.9 14.6 A 1.57 1.57 0 0 0 337.746 13.952 Q 337.453 13.305 336.6 12.55 Q 335.483 11.562 333.849 10.611 A 25.88 25.88 0 0 0 333.3 10.3 Q 331.3 9.2 329.1 8.6 Q 323.4 7.1 317.9 7.1 Q 313 7.1 308.4 8.4 A 175.422 175.422 0 0 1 310.505 9.064 Q 311.446 9.366 312.495 9.713 A 354.85 354.85 0 0 1 314.7 10.45 Q 318.4 11.7 322.45 12.95 A 157.927 157.927 0 0 0 327.337 14.376 A 129.233 129.233 0 0 0 330.1 15.1 A 34.687 34.687 0 0 0 331.319 15.365 Q 331.985 15.497 332.577 15.582 A 18.581 18.581 0 0 0 333.1 15.65 Q 334.4 15.8 335.3 15.8 Z M 372.2 40 L 372.3 39.8 A 0.124 0.124 0 0 0 372.24 39.704 Q 372.068 39.575 371.4 39.5 A 59.026 59.026 0 0 0 371.087 39.466 Q 370.512 39.406 370.329 39.401 A 1.099 1.099 0 0 0 370.3 39.4 A 7.734 7.734 0 0 0 367.763 39.851 Q 366.785 40.189 365.77 40.782 A 14.512 14.512 0 0 0 365.25 41.1 A 27.869 27.869 0 0 0 361.836 43.698 A 33.82 33.82 0 0 0 360.1 45.35 A 65.152 65.152 0 0 0 356.335 49.527 A 58.226 58.226 0 0 0 355.55 50.5 Q 353.5 53.1 352.2 55 Q 357.7 53.5 363.5 53.2 A 4.375 4.375 0 0 1 363.81 52.753 Q 363.983 52.533 364.2 52.304 A 8.075 8.075 0 0 1 364.35 52.15 L 365.3 51.2 Q 367.8 48.9 369.8 46.1 Q 371.8 43.3 372.2 40 Z M 295.9 48.1 A 0.296 0.296 0 0 0 295.977 48.156 Q 296.066 48.2 296.2 48.2 A 0.673 0.673 0 0 0 296.242 48.199 Q 296.4 48.189 296.4 48.1 A 0.645 0.645 0 0 0 296.261 47.691 Q 296.099 47.485 295.75 47.35 Q 295.25 47.158 295.135 46.462 A 2.837 2.837 0 0 1 295.1 46 A 1.415 1.415 0 0 1 295.341 45.199 Q 295.649 44.737 296.35 44.4 Q 297.6 43.8 299.35 43.55 Q 301.1 43.3 302.65 43.25 Q 304.2 43.2 304.9 43.2 Q 306.2 43.2 307.45 43.35 Q 308.7 43.5 309.9 43.5 A 2.029 2.029 0 0 0 310.042 43.495 Q 310.118 43.49 310.206 43.479 A 4.666 4.666 0 0 0 310.4 43.45 Q 310.518 43.431 310.59 43.388 A 0.207 0.207 0 0 0 310.7 43.2 A 0.283 0.283 0 0 0 310.689 43.124 Q 310.631 42.914 310.256 42.659 A 3.852 3.852 0 0 0 310 42.5 Q 309.3 42.1 309 42 Q 306.4 41.1 303.45 40.15 A 21.286 21.286 0 0 0 302.897 39.981 A 18.808 18.808 0 0 0 297.6 39.2 A 8.733 8.733 0 0 0 297.223 39.209 Q 296.728 39.23 296.17 39.306 A 16.603 16.603 0 0 0 295.05 39.5 Q 293.6 39.8 292.55 40.55 A 2.381 2.381 0 0 0 291.619 41.877 A 3.387 3.387 0 0 0 291.5 42.8 A 4.392 4.392 0 0 0 291.981 44.807 A 5.609 5.609 0 0 0 292.9 46.1 A 8.554 8.554 0 0 0 294.094 47.171 A 6.166 6.166 0 0 0 295.9 48.1 Z" vector-effect="non-scaling-stroke"/></g></svg>